<svg xmlns="http://www.w3.org/2000/svg" width="1600" height="1200" viewBox="0 0 1600 1200">
  <defs>
    <filter id="noise" x="0%" y="0%" width="100%" height="100%">
      <feTurbulence type="fractalNoise" baseFrequency="0.65" numOctaves="3" stitchTiles="stitch"/>
      <feColorMatrix type="matrix" values="1 0 0 0 0 0 1 0 0 0 0 0 1 0 0 0 0 0 0.15 0"/>
      <feComposite operator="in" in2="SourceGraphic" result="monoNoise"/>
      <feBlend in="SourceGraphic" in2="monoNoise" mode="multiply" result="blend"/>
    </filter>
    <radialGradient id="foldGradient" cx="50%" cy="50%" r="65%" fx="50%" fy="50%">
      <stop offset="0%" stop-color="#ffffff" stop-opacity="1"/>
      <stop offset="100%" stop-color="#f0f0f0" stop-opacity="1"/>
    </radialGradient>
    <linearGradient id="wrinkle1" x1="0%" y1="0%" x2="100%" y2="100%">
      <stop offset="0%" stop-color="#f8f8f8" stop-opacity="0.7"/>
      <stop offset="50%" stop-color="#ffffff" stop-opacity="0.3"/>
      <stop offset="100%" stop-color="#f0f0f0" stop-opacity="0.7"/>
    </linearGradient>
    <linearGradient id="wrinkle2" x1="100%" y1="0%" x2="0%" y2="100%">
      <stop offset="0%" stop-color="#f8f8f8" stop-opacity="0.7"/>
      <stop offset="50%" stop-color="#ffffff" stop-opacity="0.3"/>
      <stop offset="100%" stop-color="#f0f0f0" stop-opacity="0.7"/>
    </linearGradient>
  </defs>
  
  <rect width="100%" height="100%" fill="url(#foldGradient)"/>
  
  <!-- Wrinkles and folds -->
  <path d="M0,0 Q800,200 1600,0 Q1550,600 1600,1200 Q800,1000 0,1200 Q50,600 0,0" 
        fill="url(#wrinkle1)" opacity="0.2"/>
  <path d="M0,0 Q400,300 800,200 Q1200,400 1600,0 L1600,1200 Q1200,1000 800,1100 Q400,900 0,1200 Z" 
        fill="url(#wrinkle2)" opacity="0.15"/>
  
  <!-- More subtle wrinkles -->
  <path d="M0,400 Q400,350 800,450 Q1200,350 1600,400" 
        stroke="#f0f0f0" stroke-width="1" fill="none"/>
  <path d="M0,800 Q400,750 800,850 Q1200,750 1600,800" 
        stroke="#f0f0f0" stroke-width="1" fill="none"/>
  
  <!-- Apply noise texture -->
  <rect width="100%" height="100%" fill="transparent" filter="url(#noise)"/>
</svg>
